<svg data-v-3d8aaec6="" data-v-bdd6e6a8="" width="30" height="30" viewBox="0 0 30 30" fill="none" xmlns="http://www.w3.org/2000/svg" class="my-auto c-pointer"><path fill-rule="evenodd" clip-rule="evenodd" d="M3.43779 0.863112C2.44757 1.1705 1.76 1.74154 1.28064 2.65466L1 3.18934V11.6255C1 19.9789 1.0025 20.0668 1.25258 20.5963C1.8361 21.8315 2.94084 22.4944 4.41885 22.4962L5.34045 22.4974V21.428V20.3586H4.62886C4.01061 20.3586 3.86625 20.3131 3.52888 20.0119L3.1405 19.6653L3.10744 11.877C3.07914 5.18965 3.09947 4.02868 3.2518 3.66438C3.58715 2.86259 3.3593 2.88184 12.0732 2.91867L19.8679 2.9517L20.2148 3.33977C20.5162 3.67685 20.5618 3.8211 20.5618 4.43884V5.14985H21.632H22.7023L22.7011 4.229C22.6993 2.75221 22.0359 1.64838 20.7996 1.06534C20.2715 0.816297 20.1561 0.812733 11.9998 0.791939C7.4542 0.780295 3.6013 0.812376 3.43779 0.863112ZM10.1566 7.53941C9.04661 7.80093 7.96292 8.93172 7.71843 10.0833C7.634 10.4811 7.60308 13.3527 7.62555 18.6977L7.65933 26.7154L7.92891 27.262C8.27234 27.9586 8.91235 28.5981 9.60956 28.9412L10.1566 29.2106H18.5402H26.9238L27.4708 28.9412C28.168 28.5981 28.808 27.9586 29.1515 27.262L29.4211 26.7154V18.3387V9.962L29.1515 9.41543C28.808 8.7188 28.168 8.07932 27.4708 7.73617L26.9238 7.46681L18.778 7.44709C14.0134 7.43556 10.4348 7.47382 10.1566 7.53941ZM26.8875 9.98422L27.2211 10.3035V18.3247V26.346L26.9016 26.6792L26.582 27.0125H18.5402H10.4983L10.1788 26.6792L9.85928 26.346V18.3387V10.3314L10.1788 9.99824L10.4983 9.66495H18.5262H26.5541L26.8875 9.98422Z" fill="#737C86" stroke="#737C86" stroke-width="0.631579"></path></svg>
